<svg xmlns="http://www.w3.org/2000/svg" viewBox="0 0 595.28 261.4">
  <path
    d="M0,60.57H187.42a131.26,131.26,0,0,1,47-44.22,130.35,130.35,0,0,1,126.52.06,130.19,130.19,0,0,1,46.86,44.16H595.28L576.72,79.13H418a105.67,105.67,0,0,1,7.42,22h129.8l-18.56,18.57H428.28c.32,4.8.47,8.43.47,10.9s-.15,6.12-.47,10.91h86.58l-18.58,18.57H425.41A101,101,0,0,1,418,182.05h56.16l-18.81,18.56H407.77a130.88,130.88,0,0,1-46.86,44.29,129.76,129.76,0,0,1-126.52.07,132.17,132.17,0,0,1-47-44.36H139.94l-18.46-18.56h56.05a101.33,101.33,0,0,1-7.34-21.93H99.37L80.56,141.55h86.56c-.32-4.79-.47-8.44-.47-10.91s.15-6.1.47-10.9H59L40.17,101.17h130a106,106,0,0,1,7.34-22h-159ZM194.55,87.14a111.15,111.15,0,0,0,0,87A110.64,110.64,0,0,0,254.15,234a110.7,110.7,0,0,0,86.93,0,112.76,112.76,0,0,0,35.78-24,114.24,114.24,0,0,0,23.95-35.82,110.46,110.46,0,0,0,0-87,110.5,110.5,0,0,0-59.73-59.68,110.59,110.59,0,0,0-86.93,0,113.38,113.38,0,0,0-35.71,23.9A112.28,112.28,0,0,0,194.55,87.14Zm13.74,73h11.6l-.34-44,14,44,12.9-.08,13.78-43.67v43.75h12.38V101.17l-17.43,0-15,47L225,101.21l-16.73,0Zm77.7,0h12.29V101.17H286Zm25.63,0h11.83V117.65L347,160.12h14.27V101.17h-11.6v42.7l-23.54-42.7h-14.5Zm63.21,0h12.06V101.17H374.83Z"
    style="fill:#fff;fill-rule:evenodd"/>
</svg>
