<?xml version="1.0" standalone="no"?>
<!DOCTYPE svg PUBLIC "-//W3C//DTD SVG 20010904//EN"
 "http://www.w3.org/TR/2001/REC-SVG-20010904/DTD/svg10.dtd">
<svg version="1.0" xmlns="http://www.w3.org/2000/svg"
 width="1248.000000pt" height="1248.000000pt" viewBox="0 0 1248.000000 1248.000000"
 preserveAspectRatio="xMidYMid meet">
<g transform="translate(0.000000,1248.000000) scale(0.100000,-0.100000)"
fill="#000000" stroke="none">
<path d="M6049 8976 c-2 -2 -43 -7 -91 -10 -47 -3 -92 -8 -100 -10 -7 -3 -31
-7 -53 -10 -22 -3 -65 -10 -95 -16 -30 -6 -66 -13 -80 -16 -14 -3 -43 -10 -65
-16 -22 -5 -48 -12 -58 -14 -22 -4 -195 -61 -222 -74 -62 -27 -191 -82 -200
-84 -10 -2 -18 -6 -124 -64 -35 -19 -74 -40 -85 -46 -12 -6 -41 -24 -66 -40
-253 -159 -466 -341 -645 -551 -38 -44 -72 -81 -77 -83 -4 -2 -8 -8 -8 -13 0
-6 -9 -20 -20 -31 -11 -12 -45 -59 -76 -105 l-55 -83 -1964 0 -1964 0 194
-194 194 -194 1638 -1 c901 -1 1650 -2 1665 -1 29 0 29 -5 1 -60 -7 -14 -13
-32 -13 -40 0 -9 -4 -20 -9 -25 -10 -12 -73 -206 -91 -282 l-12 -53 -1360 -2
-1361 -3 194 -192 194 -193 1132 0 c1070 0 1132 -1 1135 -17 2 -10 1 -31 -2
-48 -6 -27 -6 -316 0 -340 1 -5 2 -19 1 -31 l-1 -21 -887 -1 c-489 0 -896 -1
-905 -1 -10 -1 57 -74 173 -188 104 -103 193 -189 198 -193 6 -3 343 -5 749
-5 l740 0 12 -55 c17 -76 82 -273 114 -344 14 -32 26 -59 26 -60 0 -1 -263 -2
-585 -1 -322 0 -585 -1 -585 -3 0 -1 87 -89 193 -195 l192 -193 485 1 c267 0
492 -1 501 -3 8 -2 24 -18 34 -35 32 -54 138 -197 147 -197 4 0 8 -5 8 -11 0
-6 6 -16 13 -23 7 -8 29 -32 48 -55 93 -114 268 -277 424 -397 298 -228 707
-420 1039 -489 90 -18 126 -25 171 -31 22 -2 50 -7 61 -9 147 -31 631 -26 809
9 11 2 40 7 65 11 217 35 486 126 704 237 119 60 153 79 223 124 29 19 57 34
62 34 5 0 11 4 13 8 2 4 37 31 78 60 42 28 86 61 97 72 12 11 25 20 28 20 3 0
13 8 23 18 10 9 49 44 86 76 90 79 209 202 291 301 67 81 185 241 185 251 0
27 38 29 520 29 l495 -1 188 185 c103 102 192 188 198 192 6 3 3 8 -8 10 -10
3 -273 4 -585 4 -313 0 -568 2 -568 5 0 3 16 43 35 88 27 65 73 196 80 232 1
3 6 23 12 45 6 22 13 51 17 65 l5 25 744 0 744 0 192 193 c128 128 186 192
174 193 -10 0 -416 1 -903 2 l-885 0 0 229 0 228 1133 0 1134 0 194 195 194
195 -1366 0 c-752 0 -1365 2 -1362 5 12 13 -81 312 -127 407 l-23 48 51 1
c135 1 249 -1 258 -6 5 -4 9 -3 9 2 0 8 430 8 463 -1 9 -2 17 -1 17 2 0 8 434
6 463 -2 9 -2 17 -1 17 2 0 8 434 6 463 -2 9 -2 17 -1 17 2 0 8 434 6 463 -2
9 -2 17 -1 17 2 0 8 434 6 463 -2 9 -2 17 -1 17 2 0 8 434 6 463 -2 9 -2 17
-1 17 3 0 3 29 5 64 3 l64 -3 196 196 196 195 -1964 0 -1964 0 -64 91 c-219
314 -487 568 -815 772 -224 138 -428 228 -703 311 -84 25 -241 57 -355 72 -27
3 -61 8 -75 10 -34 6 -486 15 -491 10z m476 -400 c22 -3 54 -8 70 -12 17 -3
44 -8 60 -10 106 -17 356 -88 408 -116 10 -5 27 -11 39 -13 64 -13 510 -260
548 -304 3 -3 21 -18 40 -32 130 -98 320 -292 425 -434 56 -76 155 -230 155
-242 0 -6 4 -13 9 -15 22 -8 153 -305 204 -463 33 -101 63 -225 71 -295 2 -14
6 -34 9 -45 21 -72 30 -463 14 -600 -5 -38 -10 -81 -12 -95 -2 -24 -23 -133
-29 -155 -2 -5 -6 -28 -11 -50 -4 -22 -10 -44 -14 -50 -3 -5 -7 -19 -8 -30 -2
-11 -11 -42 -20 -70 -9 -27 -18 -54 -19 -60 -12 -62 -170 -392 -233 -486 -23
-34 -41 -65 -41 -70 0 -5 -4 -9 -10 -9 -5 0 -10 -6 -10 -13 0 -7 -8 -22 -17
-33 -10 -11 -40 -49 -68 -84 -136 -178 -318 -350 -495 -471 -36 -24 -66 -47
-68 -51 -2 -5 -7 -8 -11 -8 -4 0 -45 -22 -91 -49 -189 -113 -553 -253 -715
-276 -11 -1 -36 -6 -55 -10 -19 -3 -48 -8 -65 -10 -16 -2 -55 -7 -85 -12 -112
-15 -508 -8 -605 11 -11 2 -40 7 -65 11 -157 24 -395 100 -565 181 -44 21 -82
38 -85 38 -3 1 -21 11 -41 24 -20 12 -39 22 -43 22 -10 0 -191 115 -244 156
-124 92 -175 137 -282 245 -97 98 -118 121 -180 204 -25 33 -47 62 -50 65 -3
3 -21 30 -40 60 -19 30 -38 57 -42 58 -5 2 -8 8 -8 13 0 5 -17 37 -38 71 -72
119 -155 308 -213 482 -22 69 -65 243 -73 301 -3 22 -8 51 -10 64 -12 55 -20
205 -20 336 1 200 13 315 49 485 3 14 7 34 10 45 19 89 91 313 106 330 5 5 9
15 9 21 0 18 111 248 121 252 5 2 9 8 9 13 0 5 25 51 56 101 144 237 345 454
599 646 6 4 44 29 85 56 41 27 86 56 100 65 105 71 459 222 550 236 3 0 10 3
15 6 29 18 254 63 375 75 36 3 67 8 69 10 6 5 429 -4 476 -10z"/>
<path d="M4369 6843 c-3 -50 -4 -1200 -1 -1208 1 -7 47 -11 120 -10 l117 0 -1
452 c0 249 1 451 4 449 2 -2 5 -10 6 -18 2 -7 6 -20 9 -28 3 -8 20 -60 37
-115 17 -55 38 -117 46 -137 7 -21 11 -38 8 -38 -4 0 -2 -6 3 -12 6 -7 16 -35
23 -63 7 -27 16 -54 19 -60 3 -5 6 -12 6 -15 2 -8 55 -177 86 -274 17 -50 32
-99 34 -109 2 -9 6 -21 9 -25 7 -12 264 -9 274 3 8 9 30 79 32 97 0 5 11 38
24 75 13 38 38 115 56 173 18 58 43 137 55 175 59 182 108 341 108 352 0 7 3
10 7 8 4 -2 7 -203 6 -445 -1 -288 2 -441 9 -442 5 0 64 -2 130 -2 l121 -2 -1
616 0 615 -182 3 -182 2 -56 -173 c-30 -96 -55 -176 -55 -180 0 -3 -5 -18 -12
-34 -6 -15 -12 -32 -13 -38 -2 -5 -14 -46 -28 -90 -111 -347 -150 -465 -153
-462 -3 2 -6 13 -9 23 -2 11 -36 118 -75 239 -40 121 -86 263 -103 315 -17 52
-32 98 -33 103 -1 4 -2 8 -4 10 -1 1 -3 9 -5 17 -8 34 -81 246 -88 258 -6 9
-53 12 -178 12 -154 0 -169 -2 -170 -17z"/>
<path d="M5999 6858 c-4 -9 -3 -1228 1 -1229 3 -1 60 -3 128 -4 79 -1 122 3
123 9 0 6 2 284 2 619 l2 607 -127 0 c-71 0 -129 -1 -129 -2z"/>
<path d="M6534 6242 l0 -618 117 1 c65 0 120 3 123 6 4 3 7 200 7 438 1 237 2
431 4 431 2 0 18 -26 36 -57 17 -32 31 -58 29 -58 -1 0 11 -22 29 -49 17 -28
31 -56 31 -63 0 -7 4 -13 9 -13 5 0 15 -16 21 -35 6 -19 15 -35 18 -35 4 0 12
-10 18 -23 19 -41 96 -182 104 -192 4 -5 24 -41 44 -80 21 -38 50 -92 66 -120
16 -27 41 -73 55 -101 l26 -50 147 2 c81 0 149 2 152 3 3 0 5 278 5 616 l0
615 -123 0 -122 0 2 -440 c2 -242 -1 -439 -5 -437 -7 2 -199 344 -374 667 -26
47 -55 101 -66 120 -11 19 -27 47 -34 63 l-14 27 -153 0 -153 0 1 -618z"/>
<path d="M7859 6853 c-4 -62 1 -1216 6 -1221 3 -4 60 -7 126 -8 l119 0 0 618
0 618 -125 0 c-69 0 -125 -3 -126 -7z"/>
</g>
</svg>
